Coordinates
version=1
nRows=12
nColumns=28
inDegrees=yes

Units are S.I. units (second, meters, Newtons, ...)
Angles are in degrees.

endheader
time	pelvis_tilt	pelvis_list	pelvis_rotation	pelvis_tx	pelvis_ty	pelvis_tz	hip_flexion_r	hip_adduction_r	hip_rotation_r	knee_angle_r	ankle_angle_r	subtalar_angle_r	mtp_angle_r	hip_flexion_l	hip_adduction_l	hip_rotation_l	knee_angle_l	socket_flexion	socket_adduction	socket_rotation	socket_tx	socket_ty	socket_tz	foot_flex	lumbar_extension	lumbar_bending	lumbar_rotation
      0.31666667	     -1.36257693	     -0.63408844	     -0.65107145	     -0.42944710	      1.02533257	      0.25833897	     19.78417411	     -1.26411709	     -7.25019107	    -62.87607139	      5.92176272	    -17.99999517	     -3.22423960	      4.59782336	      1.11034479	      9.93628241	     -6.64862158	      0.00000000	      0.00000000	      0.00000000	      0.00000000	     -0.00866312	      0.00000000	     -0.94952693	     -8.90987462	     -1.84475305	     -1.35832784
      0.32083333	     -1.37776978	     -0.71957776	     -0.52754230	     -0.42391934	      1.02592291	      0.25831465	     20.16953832	     -1.16353336	     -7.30953872	    -62.17387426	      6.27278370	    -18.01950153	     -3.22275671	      4.19317794	      1.00595870	     10.02006974	     -6.48028679	      0.00000000	      0.00000000	      0.00000000	      0.00000000	     -0.00836083	      0.00000000	     -0.75539275	     -8.82558955	     -1.76283454	     -1.39861984
      0.32500000	     -1.36688233	     -0.76075918	     -0.44589519	     -0.41913735	      1.02623556	      0.25814812	     20.69920284	     -1.15664592	     -7.37222245	    -61.69109977	      6.41777425	    -18.02175746	     -3.22246846	      3.88236496	      0.97616346	     10.04037526	     -6.44916352	      0.00000000	      0.00000000	      0.00000000	      0.00000000	     -0.00832719	      0.00000000	     -0.69789385	     -8.96587232	     -1.69756406	     -1.42030780
      0.32916667	     -1.33225895	     -1.22210116	     -0.14774940	     -0.41359265	      1.02674368	      0.25776018	     20.91010765	     -0.71612305	     -7.73378256	    -60.80412601	      7.21087251	    -17.92069105	     -3.28796765	      3.44206132	      0.47508151	     10.36518218	     -6.29133168	      0.00000000	      0.00000000	      0.00000000	      0.00000000	     -0.00866072	      0.00000000	     -0.54630705	     -8.94963532	     -1.09637881	     -1.66722608
      0.33333333	     -1.11396136	     -1.55626032	      0.27138662	     -0.40846298	      1.02748450	      0.25701842	     20.97002674	     -0.52922633	     -8.23288204	    -59.94455882	      7.51900980	    -17.56074370	     -3.89802987	      2.90223092	      0.14136135	     10.79626113	     -6.23651234	      0.00000000	      0.00000000	      0.00000000	      0.00000000	     -0.00885232	      0.00000000	     -0.45567635	     -9.25949812	     -0.58621203	     -2.26885966
      0.33750000	     -1.11333932	     -1.53901796	      0.35588166	     -0.40335956	      1.02785631	      0.25701764	     21.38874772	     -0.56743715	     -8.28362170	    -59.23981171	      7.69153718	    -17.58526420	     -3.94930477	      2.55371015	      0.15158629	     10.81130126	     -6.15593589	      0.00000000	      0.00000000	      0.00000000	      0.00000000	     -0.00856764	      0.00000000	     -0.33702978	     -9.28798651	     -0.61067914	     -2.29998093
      0.34166667	     -1.10927329	     -1.57985178	      0.46481770	     -0.39821264	      1.02818844	      0.25695040	     21.76624523	     -0.55290316	     -8.38303038	    -58.48257298	      7.92768091	    -17.61417189	     -4.01549696	      2.19453768	      0.09846764	     10.87398804	     -6.06111798	      0.00000000	      0.00000000	      0.00000000	      0.00000000	     -0.00840518	      0.00000000	     -0.21588218	     -9.32442238	     -0.56071130	     -2.35264889
      0.34583333	     -0.73097832	     -1.90694005	      0.78999972	     -0.39312457	      1.02904133	      0.25646479	     21.64203648	     -0.32476332	     -8.82286970	    -57.59911982	      9.09319437	    -17.07078007	     -7.30450097	      1.43983332	     -0.26677455	     11.17218719	     -5.92964172	      0.00000000	      0.00000000	      0.00000000	      0.00000000	     -0.00858550	      0.00000000	     -0.11504295	     -9.80617188	     -0.07751356	     -2.75052500
      0.35000000	     -0.76010737	     -1.88851415	      0.86561397	     -0.38813274	      1.02923383	      0.25647617	     22.06764575	     -0.36144645	     -8.87073088	    -56.81695656	      9.23726450	    -17.11150333	     -7.30995513	      1.13580073	     -0.25868834	     11.20463194	     -5.85803474	      0.00000000	      0.00000000	      0.00000000	      0.00000000	     -0.00839306	      0.00000000	     -0.00507561	     -9.82909720	     -0.10512578	     -2.77191261
      0.35416667	     -0.78698003	     -1.90858807	      0.96572496	     -0.38296921	      1.02946144	      0.25645873	     22.42480013	     -0.36985869	     -8.97234721	    -55.93899449	      9.42394625	    -17.17447359	     -7.32597378	      0.80826546	     -0.29925512	     11.26452602	     -5.76680927	      0.00000000	      0.00000000	      0.00000000	      0.00000000	     -0.00818867	      0.00000000	      0.12041449	     -9.81216153	     -0.08362830	     -2.80854503
      0.35833333	     -0.80912630	     -1.94088358	      1.07727315	     -0.37786536	      1.02965139	      0.25643446	     22.76120961	     -0.36848494	     -9.09815642	    -55.01622622	      9.60563662	    -17.24241445	     -7.35410139	      0.48203517	     -0.35396684	     11.33306979	     -5.67591788	      0.00000000	      0.00000000	      0.00000000	      0.00000000	     -0.00803208	      0.00000000	      0.24146581	     -9.81023691	     -0.03814114	     -2.85514977
      0.36250000	     -0.82759752	     -1.96756269	      1.18441520	     -0.37277186	      1.02981265	      0.25638811	     23.08504329	     -0.37704671	     -9.22653177	    -54.08048669	      9.76944261	    -17.31003221	     -7.38924891	      0.15628268	     -0.40139419	     11.39712625	     -5.59309566	      0.00000000	      0.00000000	      0.00000000	      0.00000000	     -0.00788978	      0.00000000	      0.35735503	     -9.82008794	      0.00550911	     -2.90302019
